# Blender v2.82 (sub 7) OBJ File: 'small door.blend'
# www.blender.org
mtllib small_door.mtl
o D_pixel_door_set_01:door_16_02_Mesh.010
v -0.080000 -0.000000 0.010000
v 0.080000 -0.000000 0.010000
v -0.080000 0.320000 0.010000
v 0.080000 0.320000 0.010000
v -0.080000 0.320000 -0.010000
v 0.080000 0.320000 -0.010000
v -0.080000 0.000000 -0.010000
v 0.080000 0.000000 -0.010000
vt 0.016059 0.453874
vt 0.140059 0.453874
vt 0.140059 0.702271
vt 0.016059 0.702271
vt 0.016059 0.704079
vt 0.140059 0.704079
vt 0.140059 0.717987
vt 0.016059 0.717987
vt 0.016059 0.702271
vt 0.140059 0.702271
vt 0.140059 0.453875
vt 0.016059 0.453875
vt 0.016059 0.438291
vt 0.140059 0.438291
vt 0.140059 0.452309
vt 0.016059 0.452309
vt 0.141101 0.453874
vt 0.155537 0.453874
vt 0.155537 0.702271
vt 0.141101 0.702271
vt 0.000369 0.453874
vt 0.015058 0.453874
vt 0.015058 0.702271
vt 0.000369 0.702271
vn 0.0000 -0.0000 1.0000
vn 0.0000 1.0000 0.0000
vn 0.0000 0.0000 -1.0000
vn 0.0000 -1.0000 -0.0000
vn 1.0000 0.0000 0.0000
vn -1.0000 0.0000 0.0000
usemtl D_pixel_door_set_01:door_set_01
s 1
f 1/1/1 2/2/1 4/3/1 3/4/1
f 3/5/2 4/6/2 6/7/2 5/8/2
f 5/9/3 6/10/3 8/11/3 7/12/3
f 7/13/4 8/14/4 2/15/4 1/16/4
f 2/17/5 8/18/5 6/19/5 4/20/5
f 7/21/6 1/22/6 3/23/6 5/24/6
o D_pixel_door_set_01:door_16_top_02_Mesh.011
v -0.071507 0.329027 0.010000
v 0.071507 0.329027 0.010000
v -0.071507 0.329027 -0.010000
v 0.071507 0.329027 -0.010000
v -0.015912 0.388967 0.010000
v -0.015912 0.388967 -0.010000
v 0.015912 0.388967 0.010000
v 0.015912 0.388967 -0.010000
v -0.064425 0.355703 0.010000
v -0.044584 0.377095 0.010000
v -0.044584 0.377095 -0.010000
v -0.064425 0.355703 -0.010000
v 0.044584 0.377095 0.010000
v 0.064425 0.355703 0.010000
v 0.064425 0.355703 -0.010000
v 0.044584 0.377095 -0.010000
v 0.066992 0.330000 -0.011000
v 0.062439 0.350069 -0.011000
v 0.043209 0.374182 -0.011000
v 0.015421 0.387564 -0.011000
v -0.015421 0.387564 -0.011000
v -0.043209 0.374182 -0.011000
v -0.062439 0.350069 -0.011000
v -0.066992 0.330000 -0.011000
v 0.066992 0.330000 0.011000
v 0.062439 0.350069 0.011000
v 0.043209 0.374182 0.011000
v 0.015421 0.387564 0.011000
v -0.015421 0.387564 0.011000
v -0.043209 0.374182 0.011000
v -0.062439 0.350069 0.011000
v -0.066992 0.330000 0.011000
v 0.080698 0.320000 0.011000
v 0.072706 0.355014 0.011000
v 0.050314 0.383092 0.011000
v 0.017957 0.398675 0.011000
v -0.017957 0.398675 0.011000
v -0.050314 0.383092 0.011000
v -0.072706 0.355014 0.011000
v -0.080698 0.320000 0.011000
v 0.080698 0.320000 -0.011000
v 0.072706 0.355014 -0.011000
v 0.050314 0.383092 -0.011000
v 0.017957 0.398675 -0.011000
v -0.017957 0.398675 -0.011000
v -0.050314 0.383092 -0.011000
v -0.072706 0.355014 -0.011000
v -0.080698 0.320000 -0.011000
vt 0.013877 0.036541
vt 0.008739 0.016211
vt 0.116496 0.016211
vt 0.111203 0.036541
vt 0.096215 0.052844
vt 0.074558 0.061892
vt 0.050521 0.061892
vt 0.028864 0.052844
vt 0.116496 0.016211
vt 0.008739 0.016211
vt 0.014032 0.036541
vt 0.029019 0.052844
vt 0.050676 0.061892
vt 0.074714 0.061892
vt 0.096371 0.052844
vt 0.111358 0.036541
vt 0.062022 0.000396
vt 0.031669 0.000396
vt 0.031669 0.015145
vt 0.062023 0.015145
vt 0.093205 0.000396
vt 0.062852 0.000396
vt 0.062852 0.015145
vt 0.093205 0.015145
vt 0.124526 0.000396
vt 0.094173 0.000396
vt 0.094173 0.015145
vt 0.124526 0.015145
vt 0.094178 0.000396
vt 0.094178 0.015145
vt 0.094173 0.000396
vt 0.124526 0.000396
vt 0.124526 0.015145
vt 0.094173 0.015145
vt 0.062852 0.000396
vt 0.093205 0.000396
vt 0.093205 0.015145
vt 0.062852 0.015145
vt 0.031669 0.000396
vt 0.062023 0.000396
vt 0.062023 0.015145
vt 0.031669 0.015145
vt 0.109807 0.116708
vt 0.130905 0.116708
vt 0.140161 0.109856
vt 0.109807 0.109856
vt 0.078620 0.116708
vt 0.108974 0.116708
vt 0.108974 0.109856
vt 0.078620 0.109856
vt 0.047299 0.116708
vt 0.077652 0.116708
vt 0.077652 0.109856
vt 0.047299 0.109856
vt 0.046264 0.116708
vt 0.016023 0.116708
vt 0.016023 0.109856
vt 0.046264 0.109856
vt 0.077652 0.116708
vt 0.047299 0.116708
vt 0.047299 0.109856
vt 0.077652 0.109856
vt 0.108974 0.116708
vt 0.078620 0.116708
vt 0.078620 0.109856
vt 0.108974 0.109856
vt 0.130905 0.116708
vt 0.109807 0.116708
vt 0.109807 0.109856
vt 0.140161 0.109856
vt 0.094178 0.000396
vt 0.124531 0.000396
vt 0.124531 0.015145
vt 0.094178 0.015145
vt 0.062991 0.000396
vt 0.093344 0.000396
vt 0.093344 0.015145
vt 0.062991 0.015145
vt 0.031669 0.000396
vt 0.062023 0.000396
vt 0.062023 0.015145
vt 0.031669 0.015145
vt 0.000393 0.000396
vt 0.030635 0.000396
vt 0.030635 0.015145
vt 0.000393 0.015145
vt 0.062023 0.015145
vt 0.031669 0.015145
vt 0.031669 0.000396
vt 0.062023 0.000396
vt 0.093344 0.015145
vt 0.062991 0.015145
vt 0.062991 0.000396
vt 0.093344 0.000396
vt 0.124531 0.015145
vt 0.094178 0.015145
vt 0.094178 0.000396
vt 0.124531 0.000396
vt 0.109807 0.109856
vt 0.140161 0.109856
vt 0.130905 0.116708
vt 0.109807 0.116708
vt 0.078620 0.109856
vt 0.108974 0.109856
vt 0.108974 0.116708
vt 0.078620 0.116708
vt 0.047299 0.109856
vt 0.077652 0.109856
vt 0.077652 0.116708
vt 0.047299 0.116708
vt 0.016023 0.109856
vt 0.046264 0.109856
vt 0.046264 0.116708
vt 0.016023 0.116708
vt 0.077652 0.109856
vt 0.047299 0.109856
vt 0.047299 0.116708
vt 0.077652 0.116708
vt 0.108974 0.109856
vt 0.078620 0.109856
vt 0.078620 0.116708
vt 0.108974 0.116708
vt 0.140161 0.109856
vt 0.109807 0.109856
vt 0.109807 0.116708
vt 0.130905 0.116708
vt 0.132427 0.703736
vt 0.132427 0.718318
vt 0.023801 0.718318
vt 0.023801 0.703736
vt 0.023299 0.460476
vt 0.015905 0.453665
vt 0.140555 0.453665
vt 0.132728 0.460476
vt 0.132427 0.438027
vt 0.132427 0.452609
vt 0.023801 0.452609
vt 0.023801 0.438027
vt 0.140555 0.453665
vt 0.132728 0.460476
vt 0.023299 0.460476
vt 0.015905 0.453665
vn 0.0000 -0.0000 1.0000
vn 0.0000 0.0000 -1.0000
vn -0.8805 -0.4740 -0.0000
vn -0.9752 -0.2212 0.0000
vn -0.6235 -0.7818 0.0000
vn -0.2225 -0.9749 0.0000
vn 0.2225 -0.9749 0.0000
vn 0.6235 -0.7818 0.0000
vn 0.8805 -0.4740 -0.0000
vn 0.9752 -0.2212 0.0000
vn 0.9010 0.4339 0.0000
vn 0.9749 0.2225 0.0000
vn 0.6235 0.7818 0.0000
vn 0.2225 0.9749 0.0000
vn -0.2225 0.9749 0.0000
vn -0.6235 0.7818 0.0000
vn -0.9010 0.4339 0.0000
vn -0.9749 0.2225 0.0000
vn 0.0000 1.0000 0.0000
vn 0.0000 -1.0000 0.0000
usemtl D_pixel_door_set_01:door_set_01
s 1
f 17/25/7 9/26/7 10/27/7 22/28/7 21/29/7 15/30/7 13/31/7 18/32/7
f 12/33/8 11/34/8 20/35/8 19/36/8 14/37/8 16/38/8 24/39/8 23/40/8
f 26/41/9 25/42/10 33/43/10 34/44/9
f 27/45/11 26/46/9 34/47/9 35/48/11
f 28/49/12 27/50/11 35/51/11 36/52/12
f 29/53/13 28/49/12 36/52/12 37/54/13
f 30/55/14 29/56/13 37/57/13 38/58/14
f 31/59/15 30/60/14 38/61/14 39/62/15
f 32/63/16 31/64/15 39/65/15 40/66/16
f 34/67/7 33/68/7 41/69/7 42/70/7
f 35/71/7 34/72/7 42/73/7 43/74/7
f 36/75/7 35/76/7 43/77/7 44/78/7
f 37/79/7 36/80/7 44/81/7 45/82/7
f 38/83/7 37/84/7 45/85/7 46/86/7
f 39/87/7 38/88/7 46/89/7 47/90/7
f 40/91/7 39/92/7 47/93/7 48/94/7
f 42/95/17 41/96/18 49/97/18 50/98/17
f 43/99/19 42/100/17 50/101/17 51/102/19
f 44/103/20 43/104/19 51/105/19 52/106/20
f 45/107/21 44/108/20 52/109/20 53/110/21
f 46/111/22 45/112/21 53/113/21 54/114/22
f 47/115/23 46/116/22 54/117/22 55/118/23
f 48/119/24 47/120/23 55/121/23 56/122/24
f 50/123/8 49/124/8 25/125/8 26/126/8
f 51/127/8 50/128/8 26/129/8 27/130/8
f 52/131/8 51/132/8 27/133/8 28/134/8
f 53/135/8 52/136/8 28/137/8 29/138/8
f 54/139/8 53/140/8 29/141/8 30/142/8
f 55/143/8 54/144/8 30/145/8 31/146/8
f 56/147/8 55/148/8 31/149/8 32/150/8
f 32/151/25 40/152/25 33/153/25 25/154/25
f 40/155/7 48/156/7 41/157/7 33/158/7
f 48/159/26 56/160/26 49/161/26 41/162/26
f 56/163/8 32/164/8 25/165/8 49/166/8
